<svg width="10" height="10" viewBox="0 0 10 10" fill="none" xmlns="http://www.w3.org/2000/svg">
<path d="M4.65643 8.73093C4.77888 8.87138 4.99841 8.8674 5.11569 8.72259L8.60412 4.41526C8.76297 4.21913 8.62338 3.92645 8.37099 3.92645L6.83146 3.92645C6.66578 3.92645 6.53147 3.79214 6.53147 3.62645L6.53147 1.3C6.53147 1.13431 6.39715 1 6.23147 1L3.44909 1C3.2834 1 3.14909 1.13431 3.14909 1.3L3.1491 3.62645C3.1491 3.79214 3.01478 3.92645 2.8491 3.92645L1.12718 3.92645C0.869682 3.92645 0.731835 4.22951 0.901051 4.4236L4.65643 8.73093Z" stroke="#C6C6C6"/>
</svg>
